<?xml version="1.0" standalone="no"?><!DOCTYPE svg PUBLIC "-//W3C//DTD SVG 1.1//EN" "http://www.w3.org/Graphics/SVG/1.1/DTD/svg11.dtd"><svg class="icon" height="512" viewBox="0 0 1024 1024" version="1.1" xmlns="http://www.w3.org/2000/svg"><path d="M680.96 0h-614.4l296.96 332.8L680.96 0z m-158.72 66.56l-153.6 163.84-143.36-163.84h296.96z m0 0M66.56 1024h614.4l-296.96-332.8L66.56 1024z m0 0M675.84 476.16h66.56v66.56h-66.56zM194.56 476.16h122.88v66.56H194.56zM435.2 476.16h122.88v66.56H435.2zM5.12 476.16h66.56v66.56H5.12zM1018.88 471.04c0-302.08-245.76-363.52-250.88-363.52l-15.36 66.56s194.56 46.08 194.56 296.96c0 107.52-30.72 179.2-71.68 230.4L747.52 614.4v343.04l271.36-174.08-76.8-51.2c40.96-56.32 76.8-138.24 76.8-261.12z m0 0" /></svg>